#!OML:ASF F:\VICON\USERDATA\INSTALL\rory3\rory3.ASF
:FULLY-SPECIFIED
:DEGREES
99
root 1.37434 16.9493 28.5828 -153.54 -10.1209 -179.441
lowerback -3.35084 -3.62544 -2.76248
upperback -8.96821 -5.62639 2.77842
thorax -6.98404 -2.88213 4.63473
lowerneck -17.6056 0.0236571 2.09651
upperneck 28.1408 0.414484 1.04067
head 12.2084 1.04781 0.206269
rclavicle -2.77491e-014 1.16786e-014
rhumerus -160.687 -66.5843 146.618
rradius 13.8513
rwrist 94.4717
rhand -15.2126 6.64197
rfingers 7.12502
rthumb 10.9597 -23.052
lclavicle -2.77491e-014 1.16786e-014
lhumerus 38.0967 -5.747 32.9844
lradius 16.0673
lwrist -56.5634
lhand -7.64556 28.9593
lfingers 7.12502
lthumb 18.2499 58.1232
rfemur -70.2317 0.777238 21.6612
rtibia 49.1311
rfoot -4.08091 -27.2032
rtoes 25.3832
lfemur -28.6107 0.830111 -25.5416
ltibia 43.6617
lfoot -12.6127 16.315
ltoes -42.7308
100
root 1.37285 16.9326 28.4942 -153.343 -9.94501 -179.21
lowerback -3.4094 -3.39608 -2.53227
upperback -8.97591 -5.31942 2.78019
thorax -7.00525 -2.74631 4.50196
lowerneck -18.1184 -0.0745768 2.11098
upperneck 28.2397 0.202731 1.10886
head 12.3524 0.957376 0.198777
rclavicle 1.59711e-014 -2.04251e-014
rhumerus -157.611 -66.8908 143.91
rradius 13.867
rwrist 93.344
rhand -15.45 6.03559
rfingers 7.12502
rthumb 10.7307 -23.6703
lclavicle 1.59711e-014 -2.04251e-014
lhumerus 37.8839 -4.81282 33.7591
lradius 15.6353
lwrist -58.2946
lhand -7.55803 29.1063
lfingers 7.12502
lthumb 18.3341 58.2622
rfemur -70.3753 0.352551 22.5735
rtibia 49.712
rfoot -3.85487 -25.6146
rtoes 22.3236
lfemur -28.6068 0.364012 -25.3023
ltibia 43.8083
lfoot -12.5592 17.1306
ltoes -43.0507
101
root 1.37307 16.9228 28.3994 -153.16 -9.57244 -179.267
lowerback -3.5434 -3.17463 -2.75235
upperback -9.05933 -5.04361 2.74067
thorax -7.03313 -2.60253 4.57552
lowerneck -17.8497 -0.198669 2.07977
upperneck 28.0283 0.032175 1.12424
head 12.2119 0.875762 0.179459
rclavicle -7.57245e-015 2.83268e-015
rhumerus -155.435 -66.4245 142.015
rradius 13.9528
rwrist 92.9875
rhand -15.9165 5.37146
rfingers 7.12502
rthumb 10.2807 -24.3573
lclavicle -7.57245e-015 2.83268e-015
lhumerus 37.3495 -2.89099 35.7573
lradius 14.7741
lwrist -62.5005
lhand -7.9362 28.2562
lfingers 7.12502
lthumb 17.9702 57.446
rfemur -70.5317 -0.0975704 23.1973
rtibia 50.4578
rfoot -3.56018 -23.9871
rtoes 18.7546
lfemur -28.5048 0.0816687 -25.4333
ltibia 43.8982
lfoot -12.0238 17.6625
ltoes -42.9334
102
root 1.37375 16.9314 28.2927 -153.09 -9.33346 -179.263
lowerback -3.7292 -2.98053 -2.86757
upperback -9.14285 -4.80357 2.71284
thorax -7.03587 -2.48484 4.6
lowerneck -17.3495 -0.330869 2.0099
upperneck 27.8278 -0.13705 1.24382
head 12.0297 0.812688 0.207678
rclavicle 2.57333e-014 -3.64273e-014
rhumerus -158.047 -62.0966 145.044
rradius 14.3445
rwrist 96.9602
rhand -16.6961 5.35412
rfingers 7.12502
rthumb 9.52859 -24.4104
lclavicle 2.57333e-014 -3.64273e-014
lhumerus 36.7007 -1.11768 37.9384
lradius 14.2003
lwrist -66.0706
lhand -8.00324 28.0821
lfingers 7.12502
lthumb 17.9057 57.2778
rfemur -70.4367 -0.531185 23.8653
rtibia 51.2664
rfoot -4.06311 -22.4451
rtoes 17.16
lfemur -28.2575 -0.14556 -25.4299
ltibia 43.9112
lfoot -11.2024 18.0961
ltoes -43.2119
103
root 1.36861 16.953 28.1837 -153.126 -9.20028 -179.302
lowerback -3.55989 -2.81558 -2.84906
upperback -9.46185 -4.64315 2.67798
thorax -7.50406 -2.41136 4.59005
lowerneck -16.4328 -0.498239 1.86286
upperneck 27.8176 -0.2515 1.34808
head 11.8384 0.789005 0.25696
rclavicle -7.28321e-015 -3.07495e-015
rhumerus -156.777 -60.9359 143.83
rradius 14.4707
rwrist 97.743
rhand -17.3985 5.80126
rfingers 7.12502
rthumb 8.85078 -23.9931
lclavicle -7.28321e-015 -3.07495e-015
lhumerus 35.57 1.59526 41.0515
lradius 12.6371
lwrist -73.9676
lhand -10.4402 26.4059
lfingers 7.12502
lthumb 15.5597 55.7999
rfemur -70.1322 -1.05485 24.446
rtibia 52.1104
rfoot -4.62756 -20.8732
rtoes 16.5276
lfemur -27.8516 -0.322705 -25.4518
ltibia 43.8036
lfoot -10.4012 18.4001
ltoes -43.2938
104
root 1.36354 16.9972 28.0634 -153.307 -9.13156 -179.017
lowerback -3.7956 -2.71643 -2.54671
upperback -9.41659 -4.49973 2.80411
thorax -7.34086 -2.3646 4.53147
lowerneck -15.9481 -0.538506 1.73934
upperneck 27.7717 -0.215987 1.33268
head 11.7216 0.80137 0.27778
rclavicle 5.05658e-015 -1.21259e-014
rhumerus -154.995 -60.8392 141.64
rradius 14.4269
rwrist 96.7839
rhand -17.7674 6.56204
rfingers 7.12502
rthumb 8.49483 -23.2471
lclavicle 5.05658e-015 -1.21259e-014
lhumerus 34.349 1.83813 41.9014
lradius 12.265
lwrist -75.3808
lhand -10.5503 26.9475
lfingers 7.12502
lthumb 15.4537 56.3498
rfemur -69.6308 -1.11959 24.9567
rtibia 52.906
rfoot -5.3787 -19.6142
rtoes 16.3357
lfemur -27.319 -0.447316 -25.0544
ltibia 43.6228
lfoot -9.69356 18.3929
ltoes -41.9645
105
root 1.36378 17.0606 27.9306 -153.634 -9.05463 -178.789
lowerback -3.89384 -2.66615 -2.35706
upperback -9.13144 -4.376 2.97258
thorax -6.98154 -2.3049 4.57297
lowerneck -16.2777 -0.540469 1.4801
upperneck 27.8442 -0.152488 1.25678
head 11.8166 0.784836 0.303455
rclavicle 1.58655e-014 1.49089e-014
rhumerus -156.7 -57.6566 143.087
rradius 14.5171
rwrist 98.7601
rhand -18.5779 7.3594
rfingers 7.12502
rthumb 7.71253 -22.48
lclavicle 1.58655e-014 1.49089e-014
lhumerus 32.9986 1.69387 42.3658
lradius 12.4825
lwrist -75.1569
lhand -9.67613 28.2344
lfingers 7.12502
lthumb 16.2955 57.5697
rfemur -68.9661 -0.975196 25.1578
rtibia 53.6909
rfoot -6.27677 -18.6854
rtoes 16.4666
lfemur -26.6428 -0.34112 -24.6931
ltibia 43.3704
lfoot -8.07488 18.4637
ltoes -42.2702
106
root 1.36397 17.1215 27.7915 -153.928 -9.15986 -178.657
lowerback -3.94611 -2.64519 -2.05257
upperback -9.06473 -4.33605 3.00074
thorax -6.89802 -2.30406 4.42359
lowerneck -15.9066 -0.591259 1.37166
upperneck 27.8445 -0.133906 1.20016
head 11.7408 0.785803 0.304545
rclavicle 3.96824e-014 -1.48095e-014
rhumerus -156.389 -55.7347 142.272
rradius 14.5231
rwrist 99.5156
rhand -19.3526 7.67474
rfingers 7.12502
rthumb 6.96476 -22.1907
lclavicle 3.96824e-014 -1.48095e-014
lhumerus 31.2833 3.56232 44.3702
lradius 12.3266
lwrist -78.7192
lhand -9.93422 27.9738
lfingers 7.12502
lthumb 16.047 57.3293
rfemur -68.1347 -1.28526 25.7065
rtibia 54.4127
rfoot -6.46786 -17.8198
rtoes 16.2806
lfemur -26.1045 -0.139615 -24.3343
ltibia 43.1987
lfoot -6.06402 18.3069
ltoes -42.2488
107
root 1.36402 17.1738 27.6517 -154.195 -9.06569 -178.658
lowerback -3.91725 -2.54267 -1.91592
upperback -9.08993 -4.20393 2.97097
thorax -6.96359 -2.2483 4.319
lowerneck -15.4629 -0.687246 1.15498
upperneck 27.9329 -0.151402 1.22908
head 11.6849 0.779802 0.353037
rclavicle -1.11319e-014 -5.66536e-015
rhumerus -155.198 -54.3772 140.426
rradius 14.5723
rwrist 99.7776
rhand -19.9162 8.05062
rfingers 7.12502
rthumb 6.42076 -21.8321
lclavicle -1.11319e-014 -5.66536e-015
lhumerus 29.3848 5.36412 46.3281
lradius 11.9828
lwrist -82.3713
lhand -10.8448 26.9121
lfingers 7.12502
lthumb 15.17 56.336
rfemur -67.2177 -1.759 26.3671
rtibia 55.1086
rfoot -5.89408 -16.9487
rtoes 15.7012
lfemur -25.6231 0.292921 -24.1793
ltibia 43.119
lfoot -4.229 18.1004
ltoes -41.1847
108
root 1.35901 17.229 27.5099 -154.369 -9.101 -178.403
lowerback -3.96859 -2.42327 -1.43621
upperback -9.03586 -4.0345 3.06054
thorax -6.91011 -2.1939 4.13678
lowerneck -15.6988 -0.758799 1.0938
upperneck 28.0967 -0.144879 0.905166
head 11.7957 0.736762 0.246578
rclavicle 6.37602e-014 2.06736e-014
rhumerus -155.412 -51.62 140.087
rradius 14.6648
rwrist 101.393
rhand -20.4726 8.81793
rfingers 7.12502
rthumb 5.88359 -21.0804
lclavicle 6.37602e-014 2.06736e-014
lhumerus 27.3854 5.67373 47.282
lradius 11.8492
lwrist -83.1822
lhand -10.809 26.5549
lfingers 7.12502
lthumb 15.2045 55.9762
rfemur -66.3225 -2.33331 27.4585
rtibia 55.7827
rfoot -5.30862 -16.166
rtoes 13.5552
lfemur -25.3803 0.410742 -23.6465
ltibia 43.1992
lfoot -2.95767 18.0639
ltoes -38.2597
109
root 1.35865 17.2888 27.3681 -154.467 -9.26457 -178.184
lowerback -4.22657 -2.34152 -0.997953
upperback -9.16404 -3.95603 3.14714
thorax -6.92728 -2.19636 3.97481
lowerneck -14.8888 -0.862669 1.08381
upperneck 27.8847 -0.12007 0.515116
head 11.5472 0.709809 0.106361
rclavicle 5.78463e-014 2.10712e-014
rhumerus -153.471 -51.0395 137.348
rradius 14.4632
rwrist 100.816
rhand -20.8207 9.5041
rfingers 7.12502
rthumb 5.54745 -20.4033
lclavicle 5.78463e-014 2.10712e-014
lhumerus 24.9343 5.44967 48.0933
lradius 11.7151
lwrist -82.7656
lhand -10.6682 26.358
lfingers 7.12502
lthumb 15.3401 55.769
rfemur -65.4727 -2.74701 28.2764
rtibia 56.4766
rfoot -5.21549 -15.8271
rtoes 11.9087
lfemur -25.3438 0.404539 -23.0081
ltibia 43.3503
lfoot -1.14422 18.1505
ltoes -35.3347
110
root 1.35667 17.3445 27.2218 -154.556 -9.27228 -178.002
lowerback -4.48525 -2.28917 -0.610772
upperback -9.1895 -3.90293 3.2722
thorax -6.82454 -2.20319 3.8749
lowerneck -14.7154 -0.880997 0.823676
upperneck 28.0472 0.0297422 0.319606
head 11.5754 0.741065 0.10356
rclavicle -3.52346e-014 -2.22639e-014
rhumerus -153.134 -49.0386 136.24
rradius 14.3697
rwrist 101.921
rhand -21.259 10.4458
rfingers 7.12502
rthumb 5.12427 -19.4723
lclavicle -3.52346e-014 -2.22639e-014
lhumerus 22.429 6.12915 49.2589
lradius 11.4906
lwrist -82.6762
lhand -10.8628 26.1632
lfingers 7.12502
lthumb 15.1527 55.5884
rfemur -64.6159 -3.0194 28.8975
rtibia 57.1961
rfoot -5.24179 -16.1326
rtoes 11.2694
lfemur -25.3664 0.356816 -22.4142
ltibia 43.5459
lfoot 0.290299 18.612
ltoes -29.5771
111
root 1.35253 17.4022 27.0711 -154.686 -9.12879 -177.809
lowerback -4.86599 -2.15969 -0.170689
upperback -9.04214 -3.72914 3.3248
thorax -6.47904 -2.14913 3.64892
lowerneck -14.8289 -0.943938 0.263755
upperneck 28.1898 0.0759077 0.42736
head 11.655 0.720603 0.248288
rclavicle 1.3418e-015 9.93923e-015
rhumerus -152.152 -47.6367 134.246
rradius 14.1601
rwrist 101.997
rhand -21.739 11.0263
rfingers 7.12502
rthumb 4.66078 -18.9024
lclavicle 1.3418e-015 9.93923e-015
lhumerus 19.9959 5.94518 49.9926
lradius 11.5128
lwrist -80.9893
lhand -10.6377 26.2034
lfingers 7.12502
lthumb 15.3695 55.6122
rfemur -63.7508 -3.30682 29.5575
rtibia 57.9172
rfoot -4.51452 -16.6942
rtoes 10.0024
lfemur -25.3891 0.288935 -21.8391
ltibia 43.8227
lfoot 2.05263 19.4126
ltoes -24.394
112
root 1.35092 17.452 26.926 -154.951 -8.91506 -177.805
lowerback -5.04887 -2.02523 0.0986616
upperback -8.83024 -3.53017 3.24271
thorax -6.17585 -2.06271 3.38689
lowerneck -14.7708 0.813444 -0.460516
upperneck 28.0877 -0.649101 1.06112
head 11.6088 -0.806572 0.256106
rclavicle 8.59744e-015 -8.94531e-015
rhumerus -149.713 -47.8532 130.221
rradius 13.8326
rwrist 99.7726
rhand -21.8809 11.5491
rfingers 7.12502
rthumb 4.52382 -18.3826
lclavicle 8.59744e-015 -8.94531e-015
lhumerus 17.4063 3.50459 49.8946
lradius 11.8379
lwrist -76.0238
lhand -10.8708 26.7531
lfingers 7.12502
lthumb 15.1449 56.1789
rfemur -62.7309 -3.5471 29.9045
rtibia 58.6438
rfoot -3.75737 -17.3421
rtoes 8.14823
lfemur -25.2735 0.181436 -21.4318
ltibia 44.2132
lfoot 4.47086 20.0462
ltoes -21.4997
